<svg xmlns="http://www.w3.org/2000/svg" viewBox="0 0 64 64" role="img" aria-label="Kıdem Tazminatı Hesaplama">
  <defs>
    <linearGradient id="kt-bg" x1="0" y1="0" x2="64" y2="64" gradientUnits="userSpaceOnUse">
      <stop offset="0" stop-color="#16a98a"/>
      <stop offset=".55" stop-color="#0e7c66"/>
      <stop offset="1" stop-color="#064639"/>
    </linearGradient>
    <linearGradient id="kt-doc" x1="18" y1="10" x2="46" y2="52" gradientUnits="userSpaceOnUse">
      <stop offset="0" stop-color="#ffffff"/>
      <stop offset="1" stop-color="#dff2ec"/>
    </linearGradient>
    <linearGradient id="kt-seal" x1="36" y1="36" x2="56" y2="56" gradientUnits="userSpaceOnUse">
      <stop offset="0" stop-color="#ffe3a1"/>
      <stop offset="1" stop-color="#f5b93e"/>
    </linearGradient>
  </defs>
  <rect width="64" height="64" rx="15" fill="url(#kt-bg)"/>
  <path d="M20 11h17l10 10v29a3 3 0 0 1-3 3H20a3 3 0 0 1-3-3V14a3 3 0 0 1 3-3z" fill="#0a5f4e" opacity=".55" transform="translate(2.5 2.5)"/>
  <path d="M20 11h17l10 10v29a3 3 0 0 1-3 3H20a3 3 0 0 1-3-3V14a3 3 0 0 1 3-3z" fill="url(#kt-doc)" stroke="#064639" stroke-width="1.6"/>
  <path d="M37 11l10 10H39a2 2 0 0 1-2-2z" fill="#7fd8c4" stroke="#064639" stroke-width="1.4" stroke-linejoin="round"/>
  <g fill="#0e7c66">
    <rect x="23" y="22" width="12" height="3" rx="1.5"/>
    <rect x="23" y="29" width="18" height="3" rx="1.5" opacity=".8"/>
    <rect x="23" y="36" width="18" height="3" rx="1.5" opacity=".6"/>
  </g>
  <circle cx="45.5" cy="46.5" r="9.5" fill="url(#kt-seal)" stroke="#064639" stroke-width="1.5"/>
  <circle cx="45.5" cy="46.5" r="6.4" fill="none" stroke="#064639" stroke-width="1.1" stroke-dasharray="2.4 1.6"/>
  <path d="M42.3 46.6l2.3 2.4 4.6-4.9" fill="none" stroke="#064639" stroke-width="2" stroke-linecap="round" stroke-linejoin="round"/>
</svg>
