<svg xmlns="http://www.w3.org/2000/svg" viewBox="0 0 64 64" role="img" aria-label="Koray Öner">
  <defs>
    <linearGradient id="lg-bg" x1="0" y1="0" x2="64" y2="64" gradientUnits="userSpaceOnUse">
      <stop offset="0" stop-color="#16a98a"/>
      <stop offset=".55" stop-color="#0e7c66"/>
      <stop offset="1" stop-color="#064639"/>
    </linearGradient>
    <linearGradient id="lg-shine" x1="0" y1="0" x2="0" y2="34" gradientUnits="userSpaceOnUse">
      <stop offset="0" stop-color="#ffffff" stop-opacity=".22"/>
      <stop offset="1" stop-color="#ffffff" stop-opacity="0"/>
    </linearGradient>
    <linearGradient id="lg-coin" x1="38" y1="36" x2="58" y2="58" gradientUnits="userSpaceOnUse">
      <stop offset="0" stop-color="#ffe3a1"/>
      <stop offset="1" stop-color="#f5b93e"/>
    </linearGradient>
  </defs>
  <rect width="64" height="64" rx="15" fill="url(#lg-bg)"/>
  <path d="M0 15C0 6.7 6.7 0 15 0h34c8.3 0 15 6.7 15 15v11H0z" fill="url(#lg-shine)"/>
  <g fill="none" stroke="#ffffff" stroke-width="4.4" stroke-linecap="round" stroke-linejoin="round">
    <path d="M24 15 L12 29.5 L24 44"/>
    <path d="M36 15 L48 29.5 L36 44"/>
  </g>
  <circle cx="47" cy="47" r="11.5" fill="url(#lg-coin)" stroke="#064639" stroke-width="1.6"/>
  <path d="M44.2 40.8v8.1c0 2.4 1.5 3.9 3.9 3.9 2 0 3.5-1.1 3.9-3.2l-2-.5c-.2 1-.9 1.6-1.9 1.6-1.1 0-1.8-.7-1.8-1.9v-8zM42 44.4l6.4-2.5v1.9L42 46.3zm0 3.2 6.4-2.5V47L42 49.5z" fill="#064639"/>
</svg>
