<svg xmlns="http://www.w3.org/2000/svg" viewBox="0 0 1200 630" width="1200" height="630" role="img" aria-label="İki işten maaş alan beyanname verir mi?"><foreignObject width="1200" height="630"><div xmlns="http://www.w3.org/1999/xhtml" lang="tr" xml:lang="tr" class="kok"><style>*{margin:0;padding:0;box-sizing:border-box}.kok{width:1200px;height:630px;overflow:hidden}.kok{background:#f7f5f0;color:#17201d;font-family:"Segoe UI",-apple-system,BlinkMacSystemFont,Roboto,Helvetica,Arial,sans-serif;display:flex;align-items:center;gap:36px;padding:48px 56px;position:relative}.sol{width:432px;flex:none}.kicker{font-size:19px;font-weight:800;letter-spacing:.16em;text-transform:uppercase;color:#0e7c66;margin-bottom:20px}.baslik{font-family:Georgia,"Times New Roman",serif;font-size:40px;line-height:1.1;letter-spacing:-.02em;font-weight:700}.alt{margin-top:20px;font-size:21px;line-height:1.45;color:#56605c}.sag{flex:1;display:flex;align-items:center;justify-content:center}.sag svg{width:100%;height:auto}.imza{position:absolute;left:60px;bottom:40px;font-size:17px;font-weight:600;color:#56605c}.imza b{color:#17201d}.serit{position:absolute;left:0;top:0;bottom:0;width:10px;background:#0e7c66}</style><div class="serit"></div><div class="sol"><p class="kicker">VERGİ</p><h1 class="baslik">İki işten maaş alan beyanname verir mi?</h1><p class="alt">Beyansız kalabilen aralık asgari ücretin hemen üstünde bitiyor</p></div><div class="sag"><svg xmlns="http://www.w3.org/2000/svg" viewBox="0 0 600 360" width="600" height="360" role="img" aria-label="Ikinci isin beyanname dogurmadan kalabildigi aralik, asgari ucretin kati olarak, 2022-2026"><line x1="56.0" y1="64" x2="56.0" y2="308" stroke="#f7f5f0" stroke-width="1"/><line x1="184.5" y1="64" x2="184.5" y2="308" stroke="#f7f5f0" stroke-width="1"/><line x1="313.0" y1="64" x2="313.0" y2="308" stroke="#f7f5f0" stroke-width="1"/><line x1="441.5" y1="64" x2="441.5" y2="308" stroke="#f7f5f0" stroke-width="1"/><line x1="570.0" y1="64" x2="570.0" y2="308" stroke="#f7f5f0" stroke-width="1"/><rect x="307.8" y="75.4" width="262.2" height="26.0" rx="4" fill="#e2ddd2"/><rect x="384.5" y="124.2" width="185.5" height="26.0" rx="4" fill="#e2ddd2"/><rect x="219.6" y="173.0" width="350.4" height="26.0" rx="4" fill="#e2ddd2"/><rect x="369.6" y="221.8" width="200.4" height="26.0" rx="4" fill="#e2ddd2"/><rect x="296.6" y="270.6" width="273.4" height="26.0" rx="4" fill="#e2ddd2"/><line x1="56.0" y1="56" x2="56.0" y2="312" stroke="#17201d" stroke-width="2"/><rect x="56.0" y="75.4" width="251.8" height="26.0" rx="4" fill="#2a78d6"/><text x="46" y="93.4" font-size="15" fill="#17201d" text-anchor="end">2022</text><text x="316.8" y="93.4" font-size="14" fill="#17201d">1,20× · 6.862 TL</text><rect x="56.0" y="124.2" width="328.5" height="26.0" rx="4" fill="#2a78d6"/><text x="46" y="142.2" font-size="15" fill="#17201d" text-anchor="end">2023</text><text x="393.5" y="142.2" font-size="14" fill="#17201d">1,26× · 14.705 TL</text><rect x="56.0" y="173.0" width="163.6" height="26.0" rx="4" fill="#2a78d6"/><text x="46" y="191.0" font-size="15" fill="#17201d" text-anchor="end">2024</text><text x="228.6" y="191.0" font-size="14" fill="#17201d">1,13× · 22.549 TL</text><rect x="56.0" y="221.8" width="313.6" height="26.0" rx="4" fill="#2a78d6"/><text x="46" y="239.8" font-size="15" fill="#17201d" text-anchor="end">2025</text><text x="378.6" y="239.8" font-size="14" fill="#17201d">1,24× · 32.352 TL</text><rect x="56.0" y="270.6" width="240.6" height="26.0" rx="4" fill="#2a78d6"/><text x="46" y="288.6" font-size="15" fill="#17201d" text-anchor="end">2026</text><text x="305.6" y="288.6" font-size="14" fill="#17201d">1,19× · 39.215 TL</text><text x="56.0" y="328" font-size="13" fill="#56605c" text-anchor="middle">1,0×</text><text x="184.5" y="328" font-size="13" fill="#56605c" text-anchor="middle">1,1×</text><text x="313.0" y="328" font-size="13" fill="#56605c" text-anchor="middle">1,2×</text><text x="441.5" y="328" font-size="13" fill="#56605c" text-anchor="middle">1,3×</text><text x="570.0" y="328" font-size="13" fill="#56605c" text-anchor="middle">1,4×</text><text x="56" y="30" font-size="15" fill="#17201d">Beyansız kalabilen ikinci iş (aylık brüt)</text><text x="56" y="50" font-size="13" fill="#56605c">asgari ücretin katı — her çubuğun sağındaki soluk alanda beyanname zorunlu</text></svg></div><p class="imza"><b>Koray Öner</b> · korayoner.dev</p></div></foreignObject></svg>
