<svg xmlns="http://www.w3.org/2000/svg" viewBox="0 0 800 500" width="800" height="500" role="img" aria-label="Tevkifat oranı değişse de fatura toplamı 120.000 TL sabit kalıyor; değişen, satıcıya ödenen kısım"><style>text{font-family:"Segoe UI",-apple-system,BlinkMacSystemFont,Roboto,Helvetica,Arial,sans-serif}</style><rect width="800" height="500" fill="#f7f5f0"/><rect width="8" height="500" fill="#0e7c66"/><svg x="34" y="30" width="732" height="440" viewBox="0 0 600 360"><text x="34" y="30" font-size="18" font-weight="700" fill="#17201d">Fatura toplamı her satırda 120.000 TL</text><text x="34" y="52" font-size="15" fill="#56605c">100.000 TL matrah + %20 KDV</text><text x="34" y="67" font-size="17" font-weight="700" fill="#17201d">Yok</text><rect x="34" y="74" width="532" height="46" rx="4" fill="#0e7c66"/><text x="46" y="103" font-size="17" font-weight="700" fill="#ffffff">120.000 TL</text><text x="34" y="135" font-size="17" font-weight="700" fill="#17201d">2/10</text><rect x="34" y="142" width="514" height="46" rx="4" fill="#0e7c66"/><text x="46" y="171" font-size="17" font-weight="700" fill="#ffffff">116.000 TL</text><rect x="550" y="142" width="16" height="46" rx="4" fill="#eb6834" fill-opacity="0.85"/><text x="34" y="203" font-size="17" font-weight="700" fill="#17201d">5/10</text><rect x="34" y="210" width="488" height="46" rx="4" fill="#0e7c66"/><text x="46" y="239" font-size="17" font-weight="700" fill="#ffffff">110.000 TL</text><rect x="524" y="210" width="42" height="46" rx="4" fill="#eb6834" fill-opacity="0.85"/><text x="34" y="271" font-size="17" font-weight="700" fill="#17201d">9/10</text><rect x="34" y="278" width="452" height="46" rx="4" fill="#0e7c66"/><text x="46" y="307" font-size="17" font-weight="700" fill="#ffffff">102.000 TL</text><rect x="488" y="278" width="78" height="46" rx="4" fill="#eb6834" fill-opacity="0.85"/><rect x="34" y="326" width="13" height="13" rx="3" fill="#0e7c66"/><text x="54" y="337" font-size="15" fill="#56605c">Satıcıya ödenen</text><rect x="202" y="326" width="13" height="13" rx="3" fill="#eb6834" fill-opacity="0.85"/><text x="222" y="337" font-size="15" fill="#56605c">Alıcının vergi dairesine ödediği</text></svg></svg>
