<svg xmlns="http://www.w3.org/2000/svg" viewBox="0 0 800 500" width="800" height="500" role="img" aria-label="50.000 TL kart borcunun yalnizca asgari odenerek on iki ayda erimesi, yuzde 20 ve yuzde 40 asgari oranlari icin"><style>text{font-family:"Segoe UI",-apple-system,BlinkMacSystemFont,Roboto,Helvetica,Arial,sans-serif}</style><rect width="800" height="500" fill="#f7f5f0"/><rect width="8" height="500" fill="#0e7c66"/><svg x="34" y="30" width="732" height="440" viewBox="0 0 600 360"><line x1="58" y1="308.0" x2="508" y2="308.0" stroke="#e2ddd2" stroke-width="1"/><line x1="58" y1="246.5" x2="508" y2="246.5" stroke="#e2ddd2" stroke-width="1"/><line x1="58" y1="185.0" x2="508" y2="185.0" stroke="#e2ddd2" stroke-width="1"/><line x1="58" y1="123.5" x2="508" y2="123.5" stroke="#e2ddd2" stroke-width="1"/><line x1="58" y1="62.0" x2="508" y2="62.0" stroke="#e2ddd2" stroke-width="1"/><text x="50" y="312.0" font-size="12" fill="#56605c" text-anchor="end">0B</text><text x="50" y="250.5" font-size="12" fill="#56605c" text-anchor="end">13B</text><text x="50" y="189.0" font-size="12" fill="#56605c" text-anchor="end">25B</text><text x="50" y="127.5" font-size="12" fill="#56605c" text-anchor="end">38B</text><text x="50" y="66.0" font-size="12" fill="#56605c" text-anchor="end">50B</text><text x="58.0" y="328" font-size="12" fill="#56605c" text-anchor="middle">başlangıç</text><text x="170.5" y="328" font-size="12" fill="#56605c" text-anchor="middle">3. ay</text><text x="283.0" y="328" font-size="12" fill="#56605c" text-anchor="middle">6. ay</text><text x="395.5" y="328" font-size="12" fill="#56605c" text-anchor="middle">9. ay</text><text x="508.0" y="328" font-size="12" fill="#56605c" text-anchor="middle">12. ay</text><path d="M58.0 62.0 L95.5 101.6 L133.0 134.8 L170.5 162.7 L208.0 186.9 L245.5 207.0 L283.0 223.8 L320.5 237.8 L358.0 249.4 L395.5 259.2 L433.0 267.3 L470.5 274.1 L508.0 279.7" fill="none" stroke="#eb6834" stroke-width="3" stroke-linejoin="round" stroke-linecap="round"/><circle cx="508.0" cy="279.7" r="5" fill="#eb6834" stroke="#f7f5f0" stroke-width="2"/><text x="518.0" y="283.7" font-size="13" fill="#17201d">5.752 TL</text><path d="M58.0 62.0 L95.5 153.2 L133.0 210.6 L170.5 247.1 L208.0 269.9 L245.5 284.2 L283.0 293.1 L320.5 298.7 L358.0 302.2 L395.5 304.4 L433.0 305.7 L470.5 306.6 L508.0 307.1" fill="none" stroke="#2a78d6" stroke-width="3" stroke-linejoin="round" stroke-linecap="round"/><circle cx="508.0" cy="307.1" r="5" fill="#2a78d6" stroke="#f7f5f0" stroke-width="2"/><text x="518.0" y="311.1" font-size="13" fill="#17201d">181 TL</text><rect x="58" y="42" width="11" height="11" rx="2" fill="#eb6834"/><text x="76" y="52" font-size="13" fill="#17201d">asgari %20</text><rect x="208" y="42" width="11" height="11" rx="2" fill="#2a78d6"/><text x="226" y="52" font-size="13" fill="#17201d">asgari %40</text><text x="58" y="26" font-size="15" fill="#17201d">50.000 TL borç, yalnızca asgari ödenirse</text></svg></svg>
